# xmcd
# 
# Track frame offsets:
#     150
#     13960
#     26725
#     42644
#     56316
#     71863
#     90604
#     106423
#     121330
#     133256
#     148387
#     163105
#     174875
#     189352
#     203830
#     216989
#     227906
# 
# Disc length: 3200
# 
# Revision: 2
# Processed by: cddbd v1.5.2PL0 Copyright (c) Steve Scherf et al.
# Submitted via: fre:ac v1.0.31
# 
DISCID=040c7e11
DTITLE=Now That's what I Call Music - Now That's What I Call ACM Awards 50 Years Disc 2
DYEAR=2015
DGENRE=Country
TTITLE0=Clint Black - Better Man (1989)
TTITLE1=Hank Williams, Jr. - There's a Tear in My Beer (1989)
TTITLE2=Randy Travis - Forever and Ever, Amen (1987)
TTITLE3=The Highwaymen - Highwayman (1985)
TTITLE4=The Judds - Why Not Me (1984)
TTITLE5=Dolly Parton and Kenny Rogers - Islands in the Stream (1983)
TTITLE6=Willie Nelson - Always On My Mind (1982)
TTITLE7=Alabama - Love in the First Degree (1981)
TTITLE8=The Oak Ridge Boys - Elvira (1981)
TTITLE9=David Frizzell and Shelly West - You're the Reason God Made Oklahoma (1980)
TTITLE10=George Jones - He Stopped Loving Her Today (1980)
TTITLE11=Larry Gatlin and the Gatlin Bros. - All the Gold in California (1979)
TTITLE12=Don Williams - Tulsa Time (1978)
TTITLE13=Glen Campbell - Rhinestone Cowboy (1975)
TTITLE14=Charlie Rich - Behind Closed Doors (1973)
TTITLE15=Loretta Lynn and Conway Twitty - Lead Me On (1971)
TTITLE16=Merle Haggard - Okie from Muskogee (1969)
EXTD=
EXTT0=
EXTT1=
EXTT2=
EXTT3=
EXTT4=
EXTT5=
EXTT6=
EXTT7=
EXTT8=
EXTT9=
EXTT10=
EXTT11=
EXTT12=
EXTT13=
EXTT14=
EXTT15=
EXTT16=
PLAYORDER=
